<?xml version="1.0" standalone="no"?>
<!DOCTYPE svg PUBLIC "-//W3C//DTD SVG 20010904//EN"
 "http://www.w3.org/TR/2001/REC-SVG-20010904/DTD/svg10.dtd">
<svg version="1.0" xmlns="http://www.w3.org/2000/svg"
 width="1024.000000pt" height="1024.000000pt" viewBox="0 0 1024.000000 1024.000000"
 preserveAspectRatio="xMidYMid meet">
<metadata>
Created by potrace 1.16, written by Peter Selinger 2001-2019
</metadata>
<g transform="translate(0.000000,1024.000000) scale(0.100000,-0.100000)"
fill="#ffffff" stroke="none">
<path d="M5680 6640 c40 -21 821 -790 1133 -1117 110 -115 117 -126 138 -193 27
-91 22 -166 -16 -241 -16 -30 -27 -67 -26 -83 2 -35 -43 -85 -76 -86 -13 0
-23 -3 -24 -7 0 -5 -2 -20 -3 -35 -2 -26 -31 -68 -48 -68 -5 0 -30 -21 -56
-46 -26 -25 -86 -73 -135 -106 -59 -41 -108 -86 -152 -139 -36 -43 -73 -79
-83 -79 -19 0 -312 -280 -312 -298 0 -7 -5 -12 -10 -12 -12 0 -110 -99 -110
-111 0 -5 -7 -9 -15 -9 -9 0 -19 -8 -22 -17 -4 -9 -24 -33 -46 -53 -21 -19
-60 -55 -86 -78 -105 -99 -217 -116 -301 -46 -41 35 -60 74 -60 126 0 88 29
125 318 413 149 149 276 275 282 280 5 6 26 27 45 48 19 21 35 36 35 33 0 -3
77 70 171 162 94 92 174 168 178 170 4 1 14 -5 21 -13 12 -14 7 -23 -37 -63
-112 -103 -170 -161 -167 -167 2 -3 1 -3 -3 0 -10 8 -33 -16 -26 -28 3 -6 1
-7 -5 -3 -7 4 -12 3 -12 -2 0 -5 -19 -27 -42 -48 -123 -112 -678 -670 -678
-681 0 -7 -5 -13 -11 -13 -5 0 -7 -4 -4 -10 3 -5 2 -10 -4 -10 -13 0 -25 -85
-15 -102 5 -7 9 -15 9 -18 1 -14 23 -38 45 -52 29 -18 93 -31 103 -21 4 3 18
7 31 9 31 3 25 -2 364 331 161 158 308 311 327 338 36 53 141 152 265 250 88
70 89 70 119 113 12 17 28 32 34 32 7 1 21 20 32 43 13 27 26 42 37 41 10 -1
34 14 54 32 19 19 40 31 46 28 6 -4 8 -3 5 3 -4 6 3 30 15 54 32 67 36 169 8
244 -21 57 -49 87 -609 648 -322 323 -604 600 -625 615 -33 22 -50 27 -102 27
-70 0 -102 -17 -141 -75 -29 -41 -32 -132 -7 -170 10 -14 199 -208 422 -431
223 -224 409 -414 414 -423 7 -12 5 -18 -7 -23 -18 -6 -43 17 -419 394 -460
461 -456 457 -463 547 -5 53 -2 72 17 110 23 49 70 91 117 106 43 14 125 4
173 -20z m-992 -41 c45 -22 75 -68 65 -98 -3 -9 -34 -45 -68 -81 -34 -36 -67
-77 -73 -92 -7 -16 -19 -28 -30 -28 -9 0 -76 -60 -148 -132 -72 -73 -148 -148
-170 -167 -21 -18 -91 -85 -154 -148 -63 -62 -119 -118 -125 -123 -20 -18
-212 -197 -272 -254 -33 -31 -64 -69 -68 -84 -9 -38 -24 -52 -52 -52 -59 0
-121 -241 -79 -305 10 -15 15 -32 13 -38 -2 -7 4 -29 15 -49 20 -41 540 -564
600 -605 21 -14 40 -33 43 -43 3 -10 131 -142 284 -293 308 -304 306 -302 227
-338 -23 -10 -59 -19 -81 -19 -91 0 -117 22 -548 457 -724 732 -722 729 -755
797 -56 116 -68 230 -37 361 34 149 21 133 604 718 295 296 557 554 583 573
87 65 154 77 226 43z m636 -775 c25 -10 19 -34 -39 -158 -67 -141 -155 -339
-205 -461 -21 -49 -77 -180 -125 -290 -48 -110 -88 -204 -89 -210 -1 -5 -12
-30 -24 -54 -12 -24 -19 -48 -15 -54 4 -6 1 -7 -7 -2 -9 5 -10 2 -6 -11 7 -23
-28 -84 -48 -84 -7 0 -19 7 -26 15 -11 13 -9 23 6 58 10 23 18 45 17 49 -2 5
1 8 6 8 8 0 42 73 199 430 49 113 115 261 145 330 89 202 144 332 156 375 7
22 14 46 16 53 5 13 15 15 39 6z"/>
</g>
</svg>
